# xmcd
#
# Track frame offsets: 
#        150
#        18097
#        29745
#        51425
#        61107
#        93797
#        106400
#        118817
#        143095
#        161475
#
# Disc length: 2392 seconds
#
# Revision: 0
# Processed by: cddbd v1.5.2PL0 Copyright (c) Steve Scherf et al.
# Submitted via: ExactAudioCopy v0.99pb5
#
DISCID=7f09560a
DTITLE=Roland Klausmann and Darryl Milton - New Orleans Blues Explosion
DYEAR=1994
DGENRE=Blues
TTITLE0=Love in vain
TTITLE1=I am ready
TTITLE2=The hem of this garment
TTITLE3=You got me running
TTITLE4=Personal manager - Good morning little schoolgirl
TTITLE5=Lovesick Blues
TTITLE6=Sweet home Chicago
TTITLE7=Tears in heaven
TTITLE8=Nothing can change this love
TTITLE9=Hootchie Kootchie man
EXTD=
EXTT0=
EXTT1=
EXTT2=
EXTT3=
EXTT4=
EXTT5=
EXTT6=
EXTT7=
EXTT8=
EXTT9=
PLAYORDER=
